<svg width="18" height="20" viewBox="0 0 18 20" fill="none" xmlns="http://www.w3.org/2000/svg">
<path d="M8.606 15C12.268 15 15.471 16.575 17.213 18.925L15.371 19.796C13.953 18.116 11.453 17 8.606 17C5.759 17 3.259 18.116 1.841 19.796L0 18.924C1.742 16.574 4.944 15 8.606 15ZM8.606 0C9.93208 0 11.2039 0.526784 12.1415 1.46447C13.0792 2.40215 13.606 3.67392 13.606 5V8C13.6059 9.28846 13.1085 10.5272 12.2173 11.4578C11.3262 12.3884 10.1102 12.9391 8.823 12.995L8.606 13C7.27992 13 6.00815 12.4732 5.07047 11.5355C4.13278 10.5979 3.606 9.32608 3.606 8V5C3.60607 3.71154 4.10354 2.47284 4.99466 1.54222C5.88578 0.611607 7.10175 0.0609194 8.389 0.00500011L8.606 0ZM8.606 2C7.84079 1.99996 7.10449 2.29233 6.54774 2.81728C5.99099 3.34224 5.65589 4.06011 5.611 4.824L5.606 5V8C5.60525 8.7809 5.90902 9.53133 6.45277 10.0918C6.99652 10.6523 7.73739 10.9787 8.51796 11.0016C9.29853 11.0245 10.0573 10.7422 10.633 10.2145C11.2087 9.68691 11.5559 8.9556 11.601 8.176L11.606 8V5C11.606 4.20435 11.2899 3.44129 10.7273 2.87868C10.1647 2.31607 9.40165 2 8.606 2Z" fill="#9EB7CD"/>
</svg>
